<mxfile host="app.diagrams.net" modified="2023-11-13T16:01:42.941Z" agent="Mozilla/5.0 (Windows NT 10.0; Win64; x64) AppleWebKit/537.36 (KHTML, like Gecko) Chrome/119.0.0.0 Safari/537.36" etag="PO5AC8ZMvoNjO3f3nf7L" version="22.1.0" type="github">
  <diagram name="Page-1" id="JqbXBvx72ZZyYqK1889p">
    <mxGraphModel dx="880" dy="468" grid="1" gridSize="10" guides="1" tooltips="1" connect="1" arrows="1" fold="1" page="1" pageScale="1" pageWidth="850" pageHeight="1100" math="0" shadow="0">
      <root>
        <mxCell id="0" />
        <mxCell id="1" parent="0" />
        <mxCell id="itMkBh5yz5OK9GTrzqtW-1" value="Actor" style="shape=umlActor;verticalLabelPosition=bottom;verticalAlign=top;html=1;outlineConnect=0;" vertex="1" parent="1">
          <mxGeometry x="160" y="160" width="40" height="80" as="geometry" />
        </mxCell>
        <mxCell id="itMkBh5yz5OK9GTrzqtW-2" value="Actor" style="shape=umlActor;verticalLabelPosition=bottom;verticalAlign=top;html=1;outlineConnect=0;" vertex="1" parent="1">
          <mxGeometry x="160" y="400" width="40" height="80" as="geometry" />
        </mxCell>
        <mxCell id="itMkBh5yz5OK9GTrzqtW-5" value="" style="whiteSpace=wrap;html=1;aspect=fixed;fillColor=none;" vertex="1" parent="1">
          <mxGeometry x="240" y="80" width="440" height="440" as="geometry" />
        </mxCell>
        <mxCell id="itMkBh5yz5OK9GTrzqtW-6" value="" style="ellipse;whiteSpace=wrap;html=1;fillColor=none;" vertex="1" parent="1">
          <mxGeometry x="415" y="100" width="90" height="60" as="geometry" />
        </mxCell>
      </root>
    </mxGraphModel>
  </diagram>
</mxfile>
